<?xml version="1.0" standalone="no"?>
<!DOCTYPE svg PUBLIC "-//W3C//DTD SVG 20010904//EN"
 "http://www.w3.org/TR/2001/REC-SVG-20010904/DTD/svg10.dtd">
<svg version="1.0" xmlns="http://www.w3.org/2000/svg"
 width="5000.000000pt" height="4415.000000pt" viewBox="0 0 5000.000000 4415.000000"
 preserveAspectRatio="xMidYMid meet">

<g transform="translate(0.000000,4415.000000) scale(0.100000,-0.100000)"
fill="#0000FF" stroke="none">
<path d="M10 22080 l0 -22070 24983 0 24984 0 6 8522 c9 10995 9 33193 0
34561 l-6 1057 -24984 0 -24983 0 0 -22070z m34360 12890 c205 -50 415 -172
551 -317 84 -89 138 -173 228 -352 457 -906 831 -1947 1060 -2951 410 -1793
448 -3677 111 -5470 -222 -1182 -591 -2302 -1111 -3369 -141 -288 -217 -407
-328 -514 -220 -210 -471 -310 -776 -311 -307 0 -557 101 -781 316 -207 198
-320 456 -331 750 -10 255 17 356 187 708 236 489 403 897 560 1371 750 2257
754 4727 13 6994 -156 476 -367 994 -578 1415 -148 295 -177 401 -179 635 -1
158 7 215 50 350 55 173 143 315 273 445 164 163 369 272 598 315 110 21 339
13 453 -15z m-10560 -484 c799 -87 1467 -280 2150 -622 229 -115 536 -295 632
-372 200 -159 341 -395 400 -667 7 -36 12 -124 12 -220 -1 -138 -5 -173 -27
-256 -53 -203 -137 -356 -273 -499 -139 -145 -278 -236 -456 -299 -146 -51
-241 -64 -418 -58 -241 8 -355 46 -622 205 -479 285 -974 455 -1543 529 -111
14 -207 18 -470 18 -352 -1 -447 -9 -725 -61 -1632 -305 -2904 -1634 -3139
-3279 -128 -897 54 -1791 524 -2573 264 -440 653 -860 1075 -1162 462 -330
975 -552 1524 -659 279 -55 402 -66 736 -66 320 0 409 7 675 52 931 156 1794
670 2392 1424 265 333 463 687 613 1094 26 72 51 145 55 162 l6 32 -1388 4
-1388 3 -85 22 c-226 60 -387 150 -540 302 -146 144 -248 322 -301 525 -21 80
-24 112 -24 280 0 176 2 197 28 289 54 196 153 364 296 506 148 147 313 242
519 298 l97 26 2040 6 c1122 4 2090 3 2150 -2 412 -29 791 -307 946 -693 75
-189 92 -326 79 -655 -10 -256 -28 -448 -60 -671 -317 -2174 -1786 -4026
-3840 -4841 -524 -208 -1064 -339 -1675 -405 -203 -22 -920 -25 -1115 -5 -574
59 -1018 154 -1498 321 -233 81 -411 156 -668 281 -640 311 -1154 679 -1665
1189 -212 213 -317 330 -481 536 -1207 1524 -1618 3513 -1122 5432 379 1466
1318 2764 2594 3584 840 540 1825 872 2815 949 77 5 158 12 180 14 111 10 849
-3 985 -18z m7500 -1456 c316 -84 585 -300 729 -587 133 -265 354 -846 477
-1251 376 -1244 500 -2538 368 -3857 -94 -945 -339 -1903 -714 -2790 -159
-375 -214 -469 -358 -607 -160 -154 -328 -243 -562 -300 -36 -8 -116 -13 -230
-12 -155 1 -186 4 -272 27 -363 97 -660 372 -779 723 -47 138 -62 248 -56 404
7 182 32 271 155 560 178 416 292 747 391 1138 117 460 188 909 221 1400 13
197 13 731 0 937 -58 903 -258 1724 -627 2575 -95 219 -118 294 -134 449 -20
196 14 393 101 577 59 125 112 204 198 295 163 174 390 296 631 339 25 5 120
7 211 6 132 -3 182 -8 250 -26z m7884 -18149 c66 -33 122 -91 155 -160 l26
-56 5 -1283 5 -1282 80 63 c316 250 597 389 990 492 597 156 1305 118 1836
-100 829 -339 1360 -1067 1499 -2053 38 -271 40 -398 40 -2230 l0 -1783 -24
-47 c-38 -74 -91 -128 -158 -161 l-61 -31 -507 0 c-439 0 -513 2 -554 16 -60
21 -147 100 -178 162 l-23 47 -6 1750 c-5 1549 -7 1764 -22 1872 -83 608 -345
1035 -770 1254 -169 87 -328 130 -552 150 -145 13 -320 1 -470 -32 -416 -93
-729 -341 -924 -736 -83 -166 -133 -336 -182 -613 -9 -47 -14 -566 -18 -1845
l-6 -1780 -33 -67 c-36 -73 -88 -123 -163 -157 -42 -20 -64 -21 -555 -21 -443
0 -517 2 -558 16 -64 22 -148 101 -183 172 l-28 57 -3 4035 c-2 2827 1 4056 8
4105 13 84 43 138 110 198 87 78 68 76 655 74 l520 -2 49 -24z m-28577 -331
c1019 -50 1917 -417 2643 -1081 224 -206 506 -545 544 -655 52 -152 11 -321
-103 -427 -45 -42 -604 -372 -720 -425 -73 -33 -193 -42 -272 -19 -96 29 -156
73 -243 182 -169 210 -336 364 -556 510 -570 380 -1296 518 -2055 390 -633
-107 -1185 -433 -1589 -938 -326 -408 -510 -872 -567 -1435 -15 -149 -6 -601
15 -738 65 -426 195 -773 411 -1094 390 -579 1000 -992 1677 -1135 536 -113
961 -93 1453 70 964 318 1608 983 1770 1827 l13 68 -1177 2 -1176 3 -69 34
c-88 43 -149 104 -189 189 l-32 67 0 395 0 395 32 66 c41 82 111 150 201 192
l67 32 1679 3 c1092 1 1699 -1 1735 -8 186 -33 358 -193 406 -375 19 -75 19
-260 0 -665 -18 -387 -43 -553 -126 -856 -189 -689 -521 -1288 -949 -1714
-638 -635 -1590 -1089 -2545 -1216 -268 -36 -726 -29 -1082 16 -1111 141
-2056 667 -2749 1531 -311 387 -526 781 -679 1244 -141 425 -201 784 -212
1270 -10 447 29 808 129 1200 193 758 581 1405 1188 1979 725 687 1646 1070
2685 1115 94 5 186 9 205 9 19 1 126 -3 237 -8z m9443 -16 c792 -72 1538 -374
2175 -881 142 -113 457 -427 569 -568 133 -167 221 -303 236 -365 26 -110 -9
-236 -87 -311 -33 -32 -690 -421 -834 -494 -103 -53 -231 -44 -331 22 -23 16
-69 68 -111 127 -379 535 -942 873 -1637 981 -143 22 -518 31 -690 16 -546
-48 -1009 -218 -1400 -514 -124 -94 -331 -296 -433 -422 -311 -386 -492 -818
-562 -1345 -23 -166 -30 -496 -16 -674 57 -700 305 -1254 770 -1716 417 -415
925 -648 1570 -720 145 -16 587 -13 727 5 657 86 1253 418 1609 898 42 56 93
125 114 153 57 76 138 114 241 114 42 0 92 -5 111 -12 63 -21 824 -462 867
-502 90 -82 125 -220 87 -335 -52 -157 -452 -629 -730 -862 -555 -465 -1229
-779 -1930 -898 -225 -39 -370 -52 -635 -58 -1098 -24 -2025 278 -2810 915
-151 123 -499 474 -622 629 -515 648 -805 1382 -877 2223 -86 993 126 1929
611 2695 330 521 805 991 1325 1311 769 474 1701 677 2693 588z m7010 -1684
c513 -38 972 -211 1323 -498 111 -92 267 -259 336 -362 69 -103 139 -243 167
-335 l19 -59 5 459 c5 445 6 462 27 507 29 62 91 128 150 158 l48 25 534 3
533 3 53 -25 c63 -29 125 -90 157 -154 l23 -47 0 -3030 0 -3030 -27 -46 c-15
-26 -50 -67 -78 -92 -87 -78 -75 -77 -660 -77 l-517 0 -61 30 c-69 35 -125 92
-156 159 -20 43 -21 66 -26 356 l-5 310 -112 -107 c-523 -497 -1018 -751
-1633 -834 -152 -21 -527 -24 -675 -5 -661 82 -1232 351 -1693 796 -396 382
-696 878 -862 1426 -282 935 -202 1997 211 2821 99 197 233 406 372 578 83
103 333 351 437 434 583 465 1341 693 2110 636z m7470 -15 c584 -69 1035 -252
1409 -571 312 -268 549 -671 647 -1106 37 -165 41 -259 15 -329 -30 -79 -88
-141 -169 -181 l-67 -33 -520 -3 -520 -3 -61 40 c-63 41 -114 92 -138 139 -7
15 -26 67 -41 117 -15 49 -38 112 -52 140 -123 244 -371 413 -690 471 -261 46
-623 20 -839 -61 -251 -94 -394 -278 -394 -506 0 -143 49 -249 169 -361 156
-148 429 -264 976 -418 799 -224 998 -290 1295 -425 708 -324 1084 -793 1161
-1450 17 -140 6 -412 -21 -540 -100 -472 -375 -869 -800 -1155 -355 -239 -784
-382 -1320 -441 -171 -19 -583 -17 -760 5 -719 86 -1304 350 -1735 781 -276
276 -458 592 -550 954 -36 144 -35 238 6 319 34 69 88 119 165 154 l49 23 540
0 540 0 57 -27 c72 -33 141 -104 164 -166 77 -212 127 -297 238 -408 231 -230
596 -351 996 -330 257 14 424 52 598 137 167 81 282 208 324 358 35 127 17
269 -46 370 -97 153 -323 282 -716 409 -69 22 -325 95 -570 162 -245 67 -521
147 -615 177 -807 261 -1272 589 -1512 1066 -188 376 -224 905 -88 1313 63
191 185 404 328 573 395 466 1082 770 1862 821 166 12 534 3 685 -15z"/>
<path d="M27005 11504 c-16 -2 -73 -9 -125 -15 -110 -13 -292 -57 -394 -95
-601 -227 -1021 -798 -1132 -1539 -22 -146 -25 -474 -5 -615 68 -503 277 -948
591 -1260 127 -127 248 -216 401 -294 278 -144 562 -203 889 -185 641 36 1203
423 1485 1024 224 476 267 1120 111 1662 -190 661 -680 1132 -1327 1277 -166
37 -373 54 -494 40z"/>
</g>
</svg>
